<mxfile host="app.diagrams.net" modified="2023-05-20T22:41:46.272Z" agent="Mozilla/5.0 (Windows NT 10.0; Win64; x64) AppleWebKit/537.36 (KHTML, like Gecko) Chrome/113.0.0.0 Safari/537.36" version="21.3.2" etag="M_QexcugxpfdsYyxClR1" type="github">
  <diagram name="Page-1" id="n4KFmvJrjKjzgte_hgPF">
    <mxGraphModel>
      <root>
        <mxCell id="0" />
        <mxCell id="1" parent="0" />
      </root>
    </mxGraphModel>
  </diagram>
</mxfile>
